<svg xmlns="http://www.w3.org/2000/svg" xmlns:xlink="http://www.w3.org/1999/xlink" contentStyleType="text/css" data-diagram-type="CLASS" height="491px" preserveAspectRatio="none" style="width:616px;height:491px;background:#FFFFFF;" version="1.1" viewBox="0 0 616 491" width="616px" zoomAndPan="magnify"><defs/><g><!--class User--><g id="elem_User"><rect codeLine="1" fill="#F1F1F1" height="113.1875" id="User" rx="2.5" ry="2.5" style="stroke:#181818;stroke-width:0.5;" width="143.6602" x="44" y="7"/><ellipse cx="95.625" cy="23" fill="#ADD1B2" rx="11" ry="11" style="stroke:#181818;stroke-width:1;"/><path d="M98.5938,28.6406 Q98.0156,28.9375 97.375,29.0781 Q96.7344,29.2344 96.0313,29.2344 Q93.5313,29.2344 92.2031,27.5938 Q90.8906,25.9375 90.8906,22.8125 Q90.8906,19.6875 92.2031,18.0313 Q93.5313,16.375 96.0313,16.375 Q96.7344,16.375 97.375,16.5313 Q98.0313,16.6875 98.5938,16.9844 L98.5938,19.7031 Q97.9688,19.125 97.375,18.8594 Q96.7813,18.5781 96.1563,18.5781 Q94.8125,18.5781 94.125,19.6563 Q93.4375,20.7188 93.4375,22.8125 Q93.4375,24.9063 94.125,25.9844 Q94.8125,27.0469 96.1563,27.0469 Q96.7813,27.0469 97.375,26.7813 Q97.9688,26.5 98.5938,25.9219 L98.5938,28.6406 Z " fill="#000000"/><text fill="#000000" font-family="sans-serif" font-size="14" lengthAdjust="spacing" textLength="31.9102" x="116.125" y="27.8467">User</text><line style="stroke:#181818;stroke-width:0.5;" x1="45" x2="186.6602" y1="39" y2="39"/><ellipse cx="55" cy="52.6484" fill="transparent" rx="3" ry="3" style="stroke:#038048;stroke-width:1;"/><text fill="#000000" font-family="sans-serif" font-size="14" lengthAdjust="spacing" textLength="94.5" x="64" y="55.9951">userId: String</text><ellipse cx="55" cy="68.9453" fill="transparent" rx="3" ry="3" style="stroke:#038048;stroke-width:1;"/><text fill="#000000" font-family="sans-serif" font-size="14" lengthAdjust="spacing" textLength="90.6514" x="64" y="72.292">name: String</text><ellipse cx="55" cy="85.2422" fill="transparent" rx="3" ry="3" style="stroke:#038048;stroke-width:1;"/><text fill="#000000" font-family="sans-serif" font-size="14" lengthAdjust="spacing" textLength="89.5576" x="64" y="88.5889">email: String</text><ellipse cx="55" cy="101.5391" fill="transparent" rx="3" ry="3" style="stroke:#038048;stroke-width:1;"/><text fill="#000000" font-family="sans-serif" font-size="14" lengthAdjust="spacing" textLength="117.6602" x="64" y="104.8857">password: String</text><line style="stroke:#181818;stroke-width:0.5;" x1="45" x2="186.6602" y1="112.1875" y2="112.1875"/></g><!--class Student--><g id="elem_Student"><rect codeLine="8" fill="#F1F1F1" height="64.2969" id="Student" rx="2.5" ry="2.5" style="stroke:#181818;stroke-width:0.5;" width="178.1611" x="7" y="189.5"/><ellipse cx="64.2749" cy="205.5" fill="#ADD1B2" rx="11" ry="11" style="stroke:#181818;stroke-width:1;"/><path d="M67.2437,211.1406 Q66.6655,211.4375 66.0249,211.5781 Q65.3843,211.7344 64.6812,211.7344 Q62.1812,211.7344 60.853,210.0938 Q59.5405,208.4375 59.5405,205.3125 Q59.5405,202.1875 60.853,200.5313 Q62.1812,198.875 64.6812,198.875 Q65.3843,198.875 66.0249,199.0313 Q66.6812,199.1875 67.2437,199.4844 L67.2437,202.2031 Q66.6187,201.625 66.0249,201.3594 Q65.4312,201.0781 64.8062,201.0781 Q63.4624,201.0781 62.7749,202.1563 Q62.0874,203.2188 62.0874,205.3125 Q62.0874,207.4063 62.7749,208.4844 Q63.4624,209.5469 64.8062,209.5469 Q65.4312,209.5469 66.0249,209.2813 Q66.6187,209 67.2437,208.4219 L67.2437,211.1406 Z " fill="#000000"/><text fill="#000000" font-family="sans-serif" font-size="14" lengthAdjust="spacing" textLength="55.1113" x="84.7749" y="210.3467">Student</text><line style="stroke:#181818;stroke-width:0.5;" x1="8" x2="184.1611" y1="221.5" y2="221.5"/><line style="stroke:#181818;stroke-width:0.5;" x1="8" x2="184.1611" y1="229.5" y2="229.5"/><ellipse cx="18" cy="243.1484" fill="#84BE84" rx="3" ry="3" style="stroke:#038048;stroke-width:1;"/><text fill="#000000" font-family="sans-serif" font-size="14" lengthAdjust="spacing" textLength="152.1611" x="27" y="246.4951">viewDetailsOfPlaces()</text></g><!--class Owner--><g id="elem_Owner"><rect codeLine="12" fill="#F1F1F1" height="80.5938" id="Owner" rx="2.5" ry="2.5" style="stroke:#181818;stroke-width:0.5;" width="388.9541" x="220.5" y="181"/><ellipse cx="387.8711" cy="197" fill="#ADD1B2" rx="11" ry="11" style="stroke:#181818;stroke-width:1;"/><path d="M390.8398,202.6406 Q390.2617,202.9375 389.6211,203.0781 Q388.9805,203.2344 388.2773,203.2344 Q385.7773,203.2344 384.4492,201.5938 Q383.1367,199.9375 383.1367,196.8125 Q383.1367,193.6875 384.4492,192.0313 Q385.7773,190.375 388.2773,190.375 Q388.9805,190.375 389.6211,190.5313 Q390.2773,190.6875 390.8398,190.9844 L390.8398,193.7031 Q390.2148,193.125 389.6211,192.8594 Q389.0273,192.5781 388.4023,192.5781 Q387.0586,192.5781 386.3711,193.6563 Q385.6836,194.7188 385.6836,196.8125 Q385.6836,198.9063 386.3711,199.9844 Q387.0586,201.0469 388.4023,201.0469 Q389.0273,201.0469 389.6211,200.7813 Q390.2148,200.5 390.8398,199.9219 L390.8398,202.6406 Z " fill="#000000"/><text fill="#000000" font-family="sans-serif" font-size="14" lengthAdjust="spacing" textLength="45.7119" x="408.3711" y="201.8467">Owner</text><line style="stroke:#181818;stroke-width:0.5;" x1="221.5" x2="608.4541" y1="213" y2="213"/><line style="stroke:#181818;stroke-width:0.5;" x1="221.5" x2="608.4541" y1="221" y2="221"/><ellipse cx="231.5" cy="234.6484" fill="#84BE84" rx="3" ry="3" style="stroke:#038048;stroke-width:1;"/><text fill="#000000" font-family="sans-serif" font-size="14" lengthAdjust="spacing" textLength="289.7139" x="240.5" y="237.9951">makePayment(amount: Double): boolean</text><ellipse cx="231.5" cy="250.9453" fill="#84BE84" rx="3" ry="3" style="stroke:#038048;stroke-width:1;"/><text fill="#000000" font-family="sans-serif" font-size="14" lengthAdjust="spacing" textLength="362.9541" x="240.5" y="254.292">createBoardingPlace(details: String): BoardingPlace</text></g><!--class BoardingPlace--><g id="elem_BoardingPlace"><rect codeLine="19" fill="#F1F1F1" height="145.7813" id="BoardingPlace" rx="2.5" ry="2.5" style="stroke:#181818;stroke-width:0.5;" width="189.5088" x="217" y="339"/><ellipse cx="257.7607" cy="355" fill="#ADD1B2" rx="11" ry="11" style="stroke:#181818;stroke-width:1;"/><path d="M260.7295,360.6406 Q260.1514,360.9375 259.5107,361.0781 Q258.8701,361.2344 258.167,361.2344 Q255.667,361.2344 254.3389,359.5938 Q253.0264,357.9375 253.0264,354.8125 Q253.0264,351.6875 254.3389,350.0313 Q255.667,348.375 258.167,348.375 Q258.8701,348.375 259.5107,348.5313 Q260.167,348.6875 260.7295,348.9844 L260.7295,351.7031 Q260.1045,351.125 259.5107,350.8594 Q258.917,350.5781 258.292,350.5781 Q256.9482,350.5781 256.2607,351.6563 Q255.5732,352.7188 255.5732,354.8125 Q255.5732,356.9063 256.2607,357.9844 Q256.9482,359.0469 258.292,359.0469 Q258.917,359.0469 259.5107,358.7813 Q260.1045,358.5 260.7295,357.9219 L260.7295,360.6406 Z " fill="#000000"/><text fill="#000000" font-family="sans-serif" font-size="14" lengthAdjust="spacing" textLength="100.2627" x="277.4854" y="359.8467">BoardingPlace</text><line style="stroke:#181818;stroke-width:0.5;" x1="218" x2="405.5088" y1="371" y2="371"/><ellipse cx="228" cy="384.6484" fill="transparent" rx="3" ry="3" style="stroke:#038048;stroke-width:1;"/><text fill="#000000" font-family="sans-serif" font-size="14" lengthAdjust="spacing" textLength="163.5088" x="237" y="387.9951">boardingPlaceId: String</text><ellipse cx="228" cy="400.9453" fill="transparent" rx="3" ry="3" style="stroke:#038048;stroke-width:1;"/><text fill="#000000" font-family="sans-serif" font-size="14" lengthAdjust="spacing" textLength="78.3193" x="237" y="404.292">title: String</text><ellipse cx="228" cy="417.2422" fill="transparent" rx="3" ry="3" style="stroke:#038048;stroke-width:1;"/><text fill="#000000" font-family="sans-serif" font-size="14" lengthAdjust="spacing" textLength="128.7891" x="237" y="420.5889">description: String</text><ellipse cx="228" cy="433.5391" fill="transparent" rx="3" ry="3" style="stroke:#038048;stroke-width:1;"/><text fill="#000000" font-family="sans-serif" font-size="14" lengthAdjust="spacing" textLength="106.4971" x="237" y="436.8857">location: String</text><ellipse cx="228" cy="449.8359" fill="transparent" rx="3" ry="3" style="stroke:#038048;stroke-width:1;"/><text fill="#000000" font-family="sans-serif" font-size="14" lengthAdjust="spacing" textLength="149.7822" x="237" y="453.1826">images: List&lt;String&gt;</text><ellipse cx="228" cy="466.1328" fill="transparent" rx="3" ry="3" style="stroke:#038048;stroke-width:1;"/><text fill="#000000" font-family="sans-serif" font-size="14" lengthAdjust="spacing" textLength="93.9668" x="237" y="469.4795">status: String</text><line style="stroke:#181818;stroke-width:0.5;" x1="218" x2="405.5088" y1="476.7813" y2="476.7813"/></g><!--class Payment--><g id="elem_Payment"><rect codeLine="28" fill="#F1F1F1" height="113.1875" id="Payment" rx="2.5" ry="2.5" style="stroke:#181818;stroke-width:0.5;" width="152.3281" x="442" y="355.5"/><ellipse cx="483.2837" cy="371.5" fill="#ADD1B2" rx="11" ry="11" style="stroke:#181818;stroke-width:1;"/><path d="M486.2524,377.1406 Q485.6743,377.4375 485.0337,377.5781 Q484.3931,377.7344 483.6899,377.7344 Q481.1899,377.7344 479.8618,376.0938 Q478.5493,374.4375 478.5493,371.3125 Q478.5493,368.1875 479.8618,366.5313 Q481.1899,364.875 483.6899,364.875 Q484.3931,364.875 485.0337,365.0313 Q485.6899,365.1875 486.2524,365.4844 L486.2524,368.2031 Q485.6274,367.625 485.0337,367.3594 Q484.4399,367.0781 483.8149,367.0781 Q482.4712,367.0781 481.7837,368.1563 Q481.0962,369.2188 481.0962,371.3125 Q481.0962,373.4063 481.7837,374.4844 Q482.4712,375.5469 483.8149,375.5469 Q484.4399,375.5469 485.0337,375.2813 Q485.6274,375 486.2524,374.4219 L486.2524,377.1406 Z " fill="#000000"/><text fill="#000000" font-family="sans-serif" font-size="14" lengthAdjust="spacing" textLength="61.9199" x="503.1245" y="376.3467">Payment</text><line style="stroke:#181818;stroke-width:0.5;" x1="443" x2="593.3281" y1="387.5" y2="387.5"/><ellipse cx="453" cy="401.1484" fill="transparent" rx="3" ry="3" style="stroke:#038048;stroke-width:1;"/><text fill="#000000" font-family="sans-serif" font-size="14" lengthAdjust="spacing" textLength="126.3281" x="462" y="404.4951">paymentId: String</text><ellipse cx="453" cy="417.4453" fill="transparent" rx="3" ry="3" style="stroke:#038048;stroke-width:1;"/><text fill="#000000" font-family="sans-serif" font-size="14" lengthAdjust="spacing" textLength="112.793" x="462" y="420.792">amount: Double</text><ellipse cx="453" cy="433.7422" fill="transparent" rx="3" ry="3" style="stroke:#038048;stroke-width:1;"/><text fill="#000000" font-family="sans-serif" font-size="14" lengthAdjust="spacing" textLength="74.1973" x="462" y="437.0889">date: Date</text><ellipse cx="453" cy="450.0391" fill="transparent" rx="3" ry="3" style="stroke:#038048;stroke-width:1;"/><text fill="#000000" font-family="sans-serif" font-size="14" lengthAdjust="spacing" textLength="93.9668" x="462" y="453.3857">status: String</text><line style="stroke:#181818;stroke-width:0.5;" x1="443" x2="593.3281" y1="460.6875" y2="460.6875"/></g><!--reverse link User to Student--><g id="link_User_Student"><path codeLine="35" d="M106.5441,138.233 C103.5541,161.483 102.51,169.75 99.98,189.48 " fill="transparent" id="User-backto-Student" style="stroke:#181818;stroke-width:1;"/><polygon fill="transparent" points="108.84,120.38,100.5931,137.4677,112.4951,138.9983,108.84,120.38" style="stroke:#181818;stroke-width:1;"/></g><!--reverse link User to Owner--><g id="link_User_Owner"><path codeLine="36" d="M204.3381,110.587 C249.9681,134.397 292.83,156.76 339.11,180.91 " fill="transparent" id="User-backto-Owner" style="stroke:#181818;stroke-width:1;"/><polygon fill="transparent" points="188.38,102.26,201.5624,115.9064,207.1138,105.2677,188.38,102.26" style="stroke:#181818;stroke-width:1;"/></g><!--link Owner to BoardingPlace--><g id="link_Owner_BoardingPlace"><path codeLine="37" d="M393.41,262.02 C381.26,284.26 365.7,312.72 351.46,338.79 " fill="transparent" id="Owner-BoardingPlace" style="stroke:#181818;stroke-width:1;"/><polygon fill="#000000" points="378.6024,304.9541,385.5187,298.426,380.3607,295.6074,378.6024,304.9541" style="stroke:#000000;stroke-width:1;"/><text fill="#000000" font-family="sans-serif" font-size="13" lengthAdjust="spacing" textLength="48.3247" x="390" y="305.0669">creates</text><text fill="#000000" font-family="sans-serif" font-size="13" lengthAdjust="spacing" textLength="8.271" x="381.3568" y="281.783">1</text><text fill="#000000" font-family="sans-serif" font-size="13" lengthAdjust="spacing" textLength="36.5625" x="317.6243" y="327.9293">many</text></g><!--link Owner to Payment--><g id="link_Owner_Payment"><path codeLine="38" d="M436.59,262.02 C451.4,289.11 471.25,325.45 487.65,355.45 " fill="transparent" id="Owner-Payment" style="stroke:#181818;stroke-width:1;"/><polygon fill="#000000" points="467.3978,304.9539,465.6391,295.6074,460.4812,298.4262,467.3978,304.9539" style="stroke:#000000;stroke-width:1;"/><text fill="#000000" font-family="sans-serif" font-size="13" lengthAdjust="spacing" textLength="42.9292" x="474" y="305.0669">makes</text><text fill="#000000" font-family="sans-serif" font-size="13" lengthAdjust="spacing" textLength="8.271" x="431.4187" y="281.783">1</text><text fill="#000000" font-family="sans-serif" font-size="13" lengthAdjust="spacing" textLength="36.5625" x="445.4702" y="344.307">many</text></g><!--SRC=[RL7BQiCm4BpxAnQV74eEkPgGGycbK4WWz0FMyZQ8wc6aTKr8-kzTMpMnqbo4ThGxCvfL1cE4ZqW1hWN0Io-tjxQ64mVjpYFYqDAo9elQB85E60OVxaC_HQ4csXFtBJbEpD-QXZsn3CV3vz6WebYjxhs7mSqUB7xH4IzMHYkqldTSmzxtZQ5L3OttXj2DVIeGChrw3At8JfHLcnHcBpAGlOzwisBsa9IR9PJ7m9fDbaDBKGNTiVPk2Hkly17J5iyadjvrv6s2ToCU6RcF_tFx-tporAKYTvF7CjcHAAIMypdpjEBjRRsUjx90fkoBj85oKu90fKLtAHyogY557c7tj7lsNSEuGkdw1G00]--></g></svg>