<svg xmlns="http://www.w3.org/2000/svg" xmlns:xlink="http://www.w3.org/1999/xlink" contentStyleType="text/css" data-diagram-type="ACTIVITY" height="244px" preserveAspectRatio="none" style="width:185px;height:244px;background:#FFFFFF;" version="1.1" viewBox="0 0 185 244" width="185px" zoomAndPan="magnify"><defs/><g><ellipse cx="92.8887" cy="20" fill="#222222" rx="10" ry="10" style="stroke:#222222;stroke-width:1;"/><rect fill="#F1F1F1" height="33.9688" rx="12.5" ry="12.5" style="stroke:#181818;stroke-width:0.5;" width="163.7773" x="11" y="50"/><text fill="#000000" font-family="sans-serif" font-size="12" lengthAdjust="spacing" textLength="143.7773" x="21" y="71.1387">Browse Boarding Places</text><rect fill="#F1F1F1" height="33.9688" rx="12.5" ry="12.5" style="stroke:#181818;stroke-width:0.5;" width="103.9063" x="40.9355" y="103.9688"/><text fill="#000000" font-family="sans-serif" font-size="12" lengthAdjust="spacing" textLength="83.9063" x="50.9355" y="125.1074">Select a Place</text><rect fill="#F1F1F1" height="33.9688" rx="12.5" ry="12.5" style="stroke:#181818;stroke-width:0.5;" width="129.875" x="27.9512" y="157.9375"/><text fill="#000000" font-family="sans-serif" font-size="12" lengthAdjust="spacing" textLength="109.875" x="37.9512" y="179.0762">View Place Details</text><ellipse cx="92.8887" cy="222.9063" fill="transparent" rx="11" ry="11" style="stroke:#222222;stroke-width:1;"/><ellipse cx="92.8887" cy="222.9063" fill="#222222" rx="6" ry="6" style="stroke:#222222;stroke-width:1;"/><line style="stroke:#181818;stroke-width:1;" x1="92.8887" x2="92.8887" y1="30" y2="50"/><polygon fill="#181818" points="88.8887,40,92.8887,50,96.8887,40,92.8887,44" style="stroke:#181818;stroke-width:1;"/><line style="stroke:#181818;stroke-width:1;" x1="92.8887" x2="92.8887" y1="83.9688" y2="103.9688"/><polygon fill="#181818" points="88.8887,93.9688,92.8887,103.9688,96.8887,93.9688,92.8887,97.9688" style="stroke:#181818;stroke-width:1;"/><line style="stroke:#181818;stroke-width:1;" x1="92.8887" x2="92.8887" y1="137.9375" y2="157.9375"/><polygon fill="#181818" points="88.8887,147.9375,92.8887,157.9375,96.8887,147.9375,92.8887,151.9375" style="stroke:#181818;stroke-width:1;"/><line style="stroke:#181818;stroke-width:1;" x1="92.8887" x2="92.8887" y1="191.9063" y2="211.9063"/><polygon fill="#181818" points="88.8887,201.9063,92.8887,211.9063,96.8887,201.9063,92.8887,205.9063" style="stroke:#181818;stroke-width:1;"/><!--SRC=[Aov9B2hXid8goYylJbLmoayiIidCIrS8o4bCJYssvh8AJir9JIvHI8I800N2CbFB8Hm5bzIInCmSeAhYalm20000]--></g></svg>