<svg xmlns="http://www.w3.org/2000/svg" xmlns:xlink="http://www.w3.org/1999/xlink" contentStyleType="text/css" data-diagram-type="DESCRIPTION" height="224px" preserveAspectRatio="none" style="width:2619px;height:224px;background:#FFFFFF;" version="1.1" viewBox="0 0 2619 224" width="2619px" zoomAndPan="magnify"><defs/><g><!--cluster Boarding Place System--><g id="cluster_Boarding Place System"><rect fill="transparent" height="112" rx="2.5" ry="2.5" style="stroke:#181818;stroke-width:1;" width="2606" x="7" y="106.5"/><text fill="#000000" font-family="sans-serif" font-size="14" font-weight="bold" lengthAdjust="spacing" textLength="181.8154" x="1219.0923" y="121.4951">Boarding Place System</text></g><g id="elem_View Available Boarding Places"><ellipse cx="463.7993" cy="171.9599" fill="#F1F1F1" rx="125.2993" ry="27.4599" style="stroke:#181818;stroke-width:0.5;"/><text fill="#000000" font-family="sans-serif" font-size="14" lengthAdjust="spacing" textLength="218.627" x="354.4858" y="174.8065">View Available Boarding Places</text></g><g id="elem_Get Description of a Boarding Place"><ellipse cx="162.8421" cy="171.8684" fill="#F1F1F1" rx="139.8421" ry="30.3684" style="stroke:#181818;stroke-width:0.5;"/><text fill="#000000" font-family="sans-serif" font-size="14" lengthAdjust="spacing" textLength="249.2725" x="38.2058" y="174.7151">Get Description of a Boarding Place</text></g><g id="elem_Create Boarding Place"><ellipse cx="2178.8543" cy="172.1709" fill="#F1F1F1" rx="96.3543" ry="21.6709" style="stroke:#181818;stroke-width:0.5;"/><text fill="#000000" font-family="sans-serif" font-size="14" lengthAdjust="spacing" textLength="155.9893" x="2100.8597" y="175.0175">Create Boarding Place</text></g><g id="elem_Upload Images"><ellipse cx="1972.9689" cy="171.7938" fill="#F1F1F1" rx="74.4689" ry="17.2938" style="stroke:#181818;stroke-width:0.5;"/><text fill="#000000" font-family="sans-serif" font-size="14" lengthAdjust="spacing" textLength="104.6445" x="1917.6467" y="175.5413">Upload Images</text></g><g id="elem_Add Description and Location"><ellipse cx="1743.9748" cy="171.795" fill="#F1F1F1" rx="119.4748" ry="26.295" style="stroke:#181818;stroke-width:0.5;"/><text fill="#000000" font-family="sans-serif" font-size="14" lengthAdjust="spacing" textLength="206.2334" x="1640.8581" y="174.6416">Add Description and Location</text></g><g id="elem_Pay for Advertisement"><ellipse cx="1493.0727" cy="172.2145" fill="#F1F1F1" rx="96.5727" ry="21.7145" style="stroke:#181818;stroke-width:0.5;"/><text fill="#000000" font-family="sans-serif" font-size="14" lengthAdjust="spacing" textLength="156.4746" x="1414.8354" y="175.0612">Pay for Advertisement</text></g><g id="elem_Wiev Payment Details"><ellipse cx="1265.9543" cy="171.9909" fill="#F1F1F1" rx="95.4543" ry="21.4909" style="stroke:#181818;stroke-width:0.5;"/><text fill="#000000" font-family="sans-serif" font-size="14" lengthAdjust="spacing" textLength="153.9863" x="1188.9611" y="174.8375">Wiev Payment Details</text></g><g id="elem_Wiev Posted places"><ellipse cx="1047.879" cy="171.8758" fill="#F1F1F1" rx="87.379" ry="19.8758" style="stroke:#181818;stroke-width:0.5;"/><text fill="#000000" font-family="sans-serif" font-size="14" lengthAdjust="spacing" textLength="135.7822" x="979.9879" y="174.7225">Wiev Posted places</text></g><g id="elem_Update Posted places"><ellipse cx="830.9982" cy="171.7996" fill="#F1F1F1" rx="94.4982" ry="21.2996" style="stroke:#181818;stroke-width:0.5;"/><text fill="#000000" font-family="sans-serif" font-size="14" lengthAdjust="spacing" textLength="151.8535" x="755.0714" y="174.6463">Update Posted places</text></g><g id="elem_Login"><ellipse cx="662.9641" cy="172.0557" fill="#F1F1F1" rx="38.4641" ry="14.5557" style="stroke:#181818;stroke-width:0.5;"/><text fill="#000000" font-family="sans-serif" font-size="14" lengthAdjust="spacing" textLength="38.0146" x="642.09" y="175.5106">Login</text></g><g id="elem_Register"><ellipse cx="2544.0484" cy="172.2232" fill="#F1F1F1" rx="53.5484" ry="14.7232" style="stroke:#181818;stroke-width:0.5;"/><text fill="#000000" font-family="sans-serif" font-size="14" lengthAdjust="spacing" textLength="58.2695" x="2511.9136" y="175.9707">Register</text></g><g id="elem_update profile"><ellipse cx="2383.0454" cy="171.8091" fill="#F1F1F1" rx="72.0454" ry="16.8091" style="stroke:#181818;stroke-width:0.5;"/><text fill="#000000" font-family="sans-serif" font-size="14" lengthAdjust="spacing" textLength="98.3076" x="2330.8916" y="175.5566">update profile</text></g><!--entity Student--><g id="elem_Student"><ellipse cx="314.0557" cy="14" fill="#F1F1F1" rx="8" ry="8" style="stroke:#181818;stroke-width:0.5;"/><path d="M314.0557,22 L314.0557,49 M301.0557,30 L327.0557,30 M314.0557,49 L301.0557,64 M314.0557,49 L327.0557,64 " fill="transparent" style="stroke:#181818;stroke-width:0.5;"/><text fill="#000000" font-family="sans-serif" font-size="14" lengthAdjust="spacing" textLength="55.1113" x="286.5" y="78.4951">Student</text></g><!--entity Owner--><g id="elem_Owner"><ellipse cx="1618.1016" cy="14" fill="#F1F1F1" rx="8" ry="8" style="stroke:#181818;stroke-width:0.5;"/><path d="M1618.1016,22 L1618.1016,49 M1605.1016,30 L1631.1016,30 M1618.1016,49 L1605.1016,64 M1618.1016,49 L1631.1016,64 " fill="transparent" style="stroke:#181818;stroke-width:0.5;"/><text fill="#000000" font-family="sans-serif" font-size="14" lengthAdjust="spacing" textLength="113.2031" x="1561.5" y="78.4951">Boarding Owner</text></g><!--link Student to View Available Boarding Places--><g id="link_Student_View Available Boarding Places"><path d="M341.51,67.7 C367.48,89.6 401.7528,118.5125 428.7128,141.2425 " fill="transparent" id="Student-to-View Available Boarding Places" style="stroke:#181818;stroke-width:1;"/><polygon fill="#181818" points="433.3,145.11,428.9975,136.2506,429.4773,141.8871,423.8409,142.3669,433.3,145.11" style="stroke:#181818;stroke-width:1;"/></g><!--link Student to Get Description of a Boarding Place--><g id="link_Student_Get Description of a Boarding Place"><path d="M286.3,67.7 C261.19,88.74 228.6792,115.9768 201.7392,138.5468 " fill="transparent" id="Student-to-Get Description of a Boarding Place" style="stroke:#181818;stroke-width:1;"/><polygon fill="#181818" points="197.14,142.4,206.6076,139.6864,200.9727,139.189,201.4701,133.5541,197.14,142.4" style="stroke:#181818;stroke-width:1;"/></g><!--link Owner to Create Boarding Place--><g id="link_Owner_Create Boarding Place"><path d="M1674.59,48.2 C1778.23,55.49 1994.34,73.24 2065,98.5 C2098.79,110.58 2128.161,130.453 2150.151,147.433 " fill="transparent" id="Owner-to-Create Boarding Place" style="stroke:#181818;stroke-width:1;"/><polygon fill="#181818" points="2154.9,151.1,2150.2212,142.4335,2150.9425,148.0441,2145.3318,148.7655,2154.9,151.1" style="stroke:#181818;stroke-width:1;"/></g><!--link Owner to Upload Images--><g id="link_Owner_Upload Images"><path d="M1674.75,48.54 C1729.68,54.17 1814.21,67.47 1881,98.5 C1911.06,112.47 1935.8451,133.8502 1953.0051,150.5902 " fill="transparent" id="Owner-to-Upload Images" style="stroke:#181818;stroke-width:1;"/><polygon fill="#181818" points="1957.3,154.78,1953.6509,145.6321,1953.7209,151.2885,1948.0645,151.3586,1957.3,154.78" style="stroke:#181818;stroke-width:1;"/></g><!--link Owner to Add Description and Location--><g id="link_Owner_Add Description and Location"><path d="M1655.12,81.77 C1675.74,102.47 1696.5955,123.4093 1714.8555,141.7393 " fill="transparent" id="Owner-to-Add Description and Location" style="stroke:#181818;stroke-width:1;"/><polygon fill="#181818" points="1719.09,145.99,1715.5721,136.7909,1715.5612,142.4477,1709.9044,142.4369,1719.09,145.99" style="stroke:#181818;stroke-width:1;"/></g><!--link Owner to Pay for Advertisement--><g id="link_Owner_Pay for Advertisement"><path d="M1581.17,81.77 C1558.85,104.36 1535.4472,128.0421 1517.1372,146.5721 " fill="transparent" id="Owner-to-Pay for Advertisement" style="stroke:#181818;stroke-width:1;"/><polygon fill="#181818" points="1512.92,150.84,1522.0911,147.2496,1516.4344,147.2834,1516.4006,141.6267,1512.92,150.84" style="stroke:#181818;stroke-width:1;"/></g><!--link Owner to Wiev Payment Details--><g id="link_Owner_Wiev Payment Details"><path d="M1561.25,51.64 C1511.72,59.18 1438.65,73.54 1379,98.5 C1346.75,112 1318.3134,130.9879 1296.3034,147.3679 " fill="transparent" id="Owner-to-Wiev Payment Details" style="stroke:#181818;stroke-width:1;"/><polygon fill="#181818" points="1291.49,150.95,1301.0981,148.7857,1295.5011,147.9649,1296.3219,142.3679,1291.49,150.95" style="stroke:#181818;stroke-width:1;"/></g><!--link Owner to Wiev Posted places--><g id="link_Owner_Wiev Posted places"><path d="M1561.13,47.66 C1454.01,54.17 1226.5,70.84 1153,98.5 C1120.45,110.75 1092.8863,131.3362 1072.9163,148.4462 " fill="transparent" id="Owner-to-Wiev Posted places" style="stroke:#181818;stroke-width:1;"/><polygon fill="#181818" points="1068.36,152.35,1077.7971,149.5319,1072.157,149.0968,1072.592,143.4567,1068.36,152.35" style="stroke:#181818;stroke-width:1;"/></g><!--link Owner to Update Posted places--><g id="link_Owner_Update Posted places"><path d="M1561.38,45.48 C1420.42,48.47 1056.97,59.82 943,98.5 C909.22,109.96 880.2295,130.1147 858.7595,147.3447 " fill="transparent" id="Owner-to-Update Posted places" style="stroke:#181818;stroke-width:1;"/><polygon fill="#181818" points="854.08,151.1,863.6028,148.5866,857.9796,147.9705,858.5956,142.3473,854.08,151.1" style="stroke:#181818;stroke-width:1;"/></g><!--link Owner to Login--><g id="link_Owner_Login"><path d="M1561.28,45.2 C1375.54,47.85 793.2,59.25 719,98.5 C694.54,111.44 680.1068,134.8953 671.6768,152.0453 " fill="transparent" id="Owner-to-Login" style="stroke:#181818;stroke-width:1;"/><polygon fill="#181818" points="669.03,157.43,676.59,151.1176,671.2357,152.9428,669.4104,147.5885,669.03,157.43" style="stroke:#181818;stroke-width:1;"/></g><!--link Owner to Register--><g id="link_Owner_Register"><path d="M1674.59,45.73 C1853.72,49.95 2400.78,65.43 2473,98.5 C2501.03,111.34 2520.5472,135.5377 2532.2172,152.7077 " fill="transparent" id="Owner-to-Register" style="stroke:#181818;stroke-width:1;"/><polygon fill="#181818" points="2535.59,157.67,2533.8391,147.978,2532.7794,153.5347,2527.2227,152.475,2535.59,157.67" style="stroke:#181818;stroke-width:1;"/></g><!--link Owner to update profile--><g id="link_Owner_update profile"><path d="M1674.62,44.77 C1816,46.12 2181.12,53.95 2293,98.5 C2324.13,110.9 2348.8319,133.5969 2365.1119,150.9269 " fill="transparent" id="Owner-to-update profile" style="stroke:#181818;stroke-width:1;"/><polygon fill="#181818" points="2369.22,155.3,2365.9732,146.0017,2365.7966,151.6558,2360.1425,151.4792,2369.22,155.3" style="stroke:#181818;stroke-width:1;"/></g><!--SRC=[VP3TIiGm48Nl-nH3h_HYNq6e2Y8ikEoYNe_9D0oacPBCTbd4TpTjTw4rQYv2mldE_1mqAX7gWnuj1Qq14rpU5SxIlM2q71oyd0B5YPXULHN9A0RdQG7jF1g2mpafTJLyLf3FfI1iDdTmyyPqWcP0zlYHdMjZkYqDJwJmICb4xfKbWBI0FsopQxgcqMRZGoHK-XLTKA-z5xJmtA6xjb-eZRMhvXWiRCNW-2dW7PwXpP4rTg2edAZBInJKEzC06Ht5N5jp4kaFI7AA5lf5Cgl1xRZU_z1M79U3xibnTiL2ECur-oWj-skiNzy0]--></g></svg>