<svg xmlns="http://www.w3.org/2000/svg" xmlns:xlink="http://www.w3.org/1999/xlink" contentStyleType="text/css" data-diagram-type="DESCRIPTION" height="224px" preserveAspectRatio="none" style="width:1752px;height:224px;background:#FFFFFF;" version="1.1" viewBox="0 0 1752 224" width="1752px" zoomAndPan="magnify"><defs/><g><!--cluster Boarding Place System--><g id="cluster_Boarding Place System"><rect fill="transparent" height="112" rx="2.5" ry="2.5" style="stroke:#181818;stroke-width:1;" width="1739" x="7" y="106.5"/><text fill="#000000" font-family="sans-serif" font-size="14" font-weight="bold" lengthAdjust="spacing" textLength="181.8154" x="785.5923" y="121.4951">Boarding Place System</text></g><g id="elem_View Available Boarding Places"><ellipse cx="463.7993" cy="171.9599" fill="#F1F1F1" rx="125.2993" ry="27.4599" style="stroke:#181818;stroke-width:0.5;"/><text fill="#000000" font-family="sans-serif" font-size="14" lengthAdjust="spacing" textLength="218.627" x="354.4858" y="174.8065">View Available Boarding Places</text></g><g id="elem_Get Description of a Boarding Place"><ellipse cx="162.8421" cy="171.8684" fill="#F1F1F1" rx="139.8421" ry="30.3684" style="stroke:#181818;stroke-width:0.5;"/><text fill="#000000" font-family="sans-serif" font-size="14" lengthAdjust="spacing" textLength="249.2725" x="38.2058" y="174.7151">Get Description of a Boarding Place</text></g><g id="elem_Create Boarding Place"><ellipse cx="1178.8543" cy="172.1709" fill="#F1F1F1" rx="96.3543" ry="21.6709" style="stroke:#181818;stroke-width:0.5;"/><text fill="#000000" font-family="sans-serif" font-size="14" lengthAdjust="spacing" textLength="155.9893" x="1100.8597" y="175.0175">Create Boarding Place</text></g><g id="elem_Upload Images"><ellipse cx="972.9689" cy="171.7938" fill="#F1F1F1" rx="74.4689" ry="17.2938" style="stroke:#181818;stroke-width:0.5;"/><text fill="#000000" font-family="sans-serif" font-size="14" lengthAdjust="spacing" textLength="104.6445" x="917.6467" y="175.5413">Upload Images</text></g><g id="elem_Add Description and Location"><ellipse cx="743.9748" cy="171.795" fill="#F1F1F1" rx="119.4748" ry="26.295" style="stroke:#181818;stroke-width:0.5;"/><text fill="#000000" font-family="sans-serif" font-size="14" lengthAdjust="spacing" textLength="206.2334" x="640.8581" y="174.6416">Add Description and Location</text></g><g id="elem_Pay for Advertisement"><ellipse cx="1633.0727" cy="172.2145" fill="#F1F1F1" rx="96.5727" ry="21.7145" style="stroke:#181818;stroke-width:0.5;"/><text fill="#000000" font-family="sans-serif" font-size="14" lengthAdjust="spacing" textLength="156.4746" x="1554.8354" y="175.0612">Pay for Advertisement</text></g><g id="elem_Wiev Payment Details"><ellipse cx="1405.9543" cy="171.9909" fill="#F1F1F1" rx="95.4543" ry="21.4909" style="stroke:#181818;stroke-width:0.5;"/><text fill="#000000" font-family="sans-serif" font-size="14" lengthAdjust="spacing" textLength="153.9863" x="1328.9611" y="174.8375">Wiev Payment Details</text></g><!--entity Student--><g id="elem_Student"><ellipse cx="314.0557" cy="14" fill="#F1F1F1" rx="8" ry="8" style="stroke:#181818;stroke-width:0.5;"/><path d="M314.0557,22 L314.0557,49 M301.0557,30 L327.0557,30 M314.0557,49 L301.0557,64 M314.0557,49 L327.0557,64 " fill="transparent" style="stroke:#181818;stroke-width:0.5;"/><text fill="#000000" font-family="sans-serif" font-size="14" lengthAdjust="spacing" textLength="55.1113" x="286.5" y="78.4951">Student</text></g><!--entity Owner--><g id="elem_Owner"><ellipse cx="1179.1016" cy="14" fill="#F1F1F1" rx="8" ry="8" style="stroke:#181818;stroke-width:0.5;"/><path d="M1179.1016,22 L1179.1016,49 M1166.1016,30 L1192.1016,30 M1179.1016,49 L1166.1016,64 M1179.1016,49 L1192.1016,64 " fill="transparent" style="stroke:#181818;stroke-width:0.5;"/><text fill="#000000" font-family="sans-serif" font-size="14" lengthAdjust="spacing" textLength="113.2031" x="1122.5" y="78.4951">Boarding Owner</text></g><!--link Student to View Available Boarding Places--><g id="link_Student_View Available Boarding Places"><path d="M341.51,67.7 C367.48,89.6 401.7528,118.5125 428.7128,141.2425 " fill="transparent" id="Student-to-View Available Boarding Places" style="stroke:#181818;stroke-width:1;"/><polygon fill="#181818" points="433.3,145.11,428.9975,136.2506,429.4773,141.8871,423.8409,142.3669,433.3,145.11" style="stroke:#181818;stroke-width:1;"/></g><!--link Student to Get Description of a Boarding Place--><g id="link_Student_Get Description of a Boarding Place"><path d="M286.3,67.7 C261.19,88.74 228.6792,115.9768 201.7392,138.5468 " fill="transparent" id="Student-to-Get Description of a Boarding Place" style="stroke:#181818;stroke-width:1;"/><polygon fill="#181818" points="197.14,142.4,206.6076,139.6864,200.9727,139.189,201.4701,133.5541,197.14,142.4" style="stroke:#181818;stroke-width:1;"/></g><!--link Owner to Create Boarding Place--><g id="link_Owner_Create Boarding Place"><path d="M1179,81.77 C1179,104.22 1179,125.95 1179,144.48 " fill="transparent" id="Owner-to-Create Boarding Place" style="stroke:#181818;stroke-width:1;"/><polygon fill="#181818" points="1179,150.48,1183,141.48,1179,145.48,1175,141.48,1179,150.48" style="stroke:#181818;stroke-width:1;"/></g><!--link Owner to Upload Images--><g id="link_Owner_Upload Images"><path d="M1122.3,68.3 C1103.58,76.95 1082.96,87.37 1065,98.5 C1037.52,115.54 1013.2008,135.4351 995.3008,151.0551 " fill="transparent" id="Owner-to-Upload Images" style="stroke:#181818;stroke-width:1;"/><polygon fill="#181818" points="990.78,155,1000.1911,152.0964,994.5473,151.7125,994.9312,146.0687,990.78,155" style="stroke:#181818;stroke-width:1;"/></g><!--link Owner to Add Description and Location--><g id="link_Owner_Add Description and Location"><path d="M1122.5,49.52 C1061.57,56.12 962.37,70.36 881,98.5 C845.9,110.64 813.9902,127.6818 787.2702,143.6518 " fill="transparent" id="Owner-to-Add Description and Location" style="stroke:#181818;stroke-width:1;"/><polygon fill="#181818" points="782.12,146.73,791.8975,145.5462,786.4119,144.1648,787.7932,138.6792,782.12,146.73" style="stroke:#181818;stroke-width:1;"/></g><!--link Owner to Pay for Advertisement--><g id="link_Owner_Pay for Advertisement"><path d="M1235.55,46.47 C1304.53,50.44 1423.7,62.41 1519,98.5 C1552.34,111.13 1581.5017,130.6913 1603.5717,147.4513 " fill="transparent" id="Owner-to-Pay for Advertisement" style="stroke:#181818;stroke-width:1;"/><polygon fill="#181818" points="1608.35,151.08,1603.6016,142.4514,1604.368,148.0561,1598.7634,148.8225,1608.35,151.08" style="stroke:#181818;stroke-width:1;"/></g><!--link Owner to Wiev Payment Details--><g id="link_Owner_Wiev Payment Details"><path d="M1235.68,69.6 C1254.2,78.27 1274.71,88.36 1293,98.5 C1322.56,114.89 1349.9096,132.6192 1372.3896,147.8192 " fill="transparent" id="Owner-to-Wiev Payment Details" style="stroke:#181818;stroke-width:1;"/><polygon fill="#181818" points="1377.36,151.18,1372.1449,142.8252,1373.218,148.3793,1367.6638,149.4524,1377.36,151.18" style="stroke:#181818;stroke-width:1;"/></g><!--SRC=[RP312i8m44Jl-OgX9ptu2q9L445G4FMy9ci9j8aaQqN4VpUs5QerXx3BlDb9bhJuW6mdLyDECb14LojgfPcdOAmhiBav3WtHL4e5raAkABa7RKlIZDqz2bSP7WhfT0CncKmnEbY-8Q_9bdHApczZ70yDInOiEEfWBsAzWp-3VcojgxcQfxN6UM0I_elsgFsbz6ImggZunFVKt9YlS786Qw_ftGpWBTrnJYlBJSr1REGgVM907ItNIEXRJBCbRQBBLSyN]--></g></svg>